HIERARCHY
ROOT hip
{
	OFFSET 0.000000 0.000000 0.000000
	CHANNELS 6 Xposition Yposition Zposition Zrotation Yrotation Xrotation 
	JOINT lhipjoint
	{
		OFFSET 0.000000 0.000000 0.000000
		CHANNELS 3 Zrotation Yrotation Xrotation
		JOINT lfemur
		{
			OFFSET 1.363060 -1.794630 0.839290
			CHANNELS 3 Zrotation Yrotation Xrotation
			JOINT ltibia
			{
				OFFSET 2.448110 -6.726130 0.000000
				CHANNELS 3 Zrotation Yrotation Xrotation
				JOINT lfoot
				{
					OFFSET 2.562200 -7.039590 0.000000
					CHANNELS 3 Zrotation Yrotation Xrotation
					JOINT ltoes
					{
						OFFSET 0.157640 -0.433110 2.322550
						CHANNELS 3 Zrotation Yrotation Xrotation
						End Site
						{
							OFFSET 0.000000 0.000000 0.000000
						}
					}
				}
			}
		}
	}
	JOINT rhipjoint
	{
		OFFSET 0.000000 0.000000 0.000000
		CHANNELS 3 Zrotation Yrotation Xrotation
		JOINT rfemur
		{
			OFFSET -1.305520 -1.794630 0.839290
			CHANNELS 3 Zrotation Yrotation Xrotation
			JOINT rtibia
			{
				OFFSET -2.542530 -6.985550 0.000000
				CHANNELS 3 Zrotation Yrotation Xrotation
				JOINT rfoot
				{
					OFFSET -2.568260 -7.056230 0.000000
					CHANNELS 3 Zrotation Yrotation Xrotation
					JOINT rtoes
					{
						OFFSET -0.164730 -0.452590 2.363150
						CHANNELS 3 Zrotation Yrotation Xrotation
						End Site
						{
							OFFSET 0.000000 0.000000 0.000000
						}
					}
				}
			}
		}
	}
	JOINT lowerback
	{
		OFFSET 0.000000 0.000000 0.000000
		CHANNELS 3 Zrotation Yrotation Xrotation
		JOINT upperback
		{
			OFFSET 0.028270 2.035590 -0.193380
			CHANNELS 3 Zrotation Yrotation Xrotation
			JOINT thorax
			{
				OFFSET 0.056720 2.048850 -0.042750
				CHANNELS 3 Zrotation Yrotation Xrotation
				JOINT lowerneck
				{
					OFFSET 0.000000 0.000000 0.000000
					CHANNELS 3 Zrotation Yrotation Xrotation
					JOINT upperneck
					{
						OFFSET -0.054170 1.746240 0.172020
						CHANNELS 3 Zrotation Yrotation Xrotation
						JOINT head
						{
							OFFSET 0.104070 1.761360 -0.123970
							CHANNELS 3 Zrotation Yrotation Xrotation
							End Site
							{
								OFFSET 0.000000 0.000000 0.000000
							}
						}
					}
				}
				JOINT lclavicle
				{
					OFFSET 0.000000 0.000000 0.000000
					CHANNELS 3 Zrotation Yrotation Xrotation
					JOINT lhumerus
					{
						OFFSET 3.362410 1.200890 -0.311210
						CHANNELS 3 Zrotation Yrotation Xrotation
						JOINT lradius
						{
							OFFSET 4.983000 -0.000000 -0.000000
							CHANNELS 3 Zrotation Yrotation Xrotation
							JOINT lwrist
							{
								OFFSET 3.483560 -0.000000 -0.000000
								CHANNELS 3 Zrotation Yrotation Xrotation
								JOINT lhand
								{
									OFFSET 0.000000 0.000000 0.000000
									CHANNELS 3 Zrotation Yrotation Xrotation
									JOINT lfingers
									{
										OFFSET 0.715260 -0.000000 -0.000000
										CHANNELS 3 Zrotation Yrotation Xrotation
										End Site
										{
											OFFSET 0.000000 0.000000 0.000000
										}
									}
								}
								JOINT lthumb
								{
									OFFSET 0.000000 0.000000 0.000000
									CHANNELS 3 Zrotation Yrotation Xrotation
									End Site
									{
										OFFSET 0.000000 0.000000 0.000000
									}
								}
							}
						}
					}
				}
				JOINT rclavicle
				{
					OFFSET 0.000000 0.000000 0.000000
					CHANNELS 3 Zrotation Yrotation Xrotation
					JOINT rhumerus
					{
						OFFSET -3.136600 1.374050 -0.404650
						CHANNELS 3 Zrotation Yrotation Xrotation
						JOINT rradius
						{
							OFFSET -5.241900 -0.000000 -0.000000
							CHANNELS 3 Zrotation Yrotation Xrotation
							JOINT rwrist
							{
								OFFSET -3.444170 -0.000000 -0.000000
								CHANNELS 3 Zrotation Yrotation Xrotation
								JOINT rhand
								{
									OFFSET 0.000000 0.000000 0.000000
									CHANNELS 3 Zrotation Yrotation Xrotation
									JOINT rfingers
									{
										OFFSET -0.622530 -0.000000 -0.000000
										CHANNELS 3 Zrotation Yrotation Xrotation
										End Site
										{
											OFFSET 0.000000 0.000000 0.000000
										}
									}
								}
								JOINT rthumb
								{
									OFFSET 0.000000 0.000000 0.000000
									CHANNELS 3 Zrotation Yrotation Xrotation
									End Site
									{
										OFFSET 0.000000 0.000000 0.000000
									}
								}
							}
						}
					}
				}
			}
		}
	}
}
MOTION
Frames: 6
Frame Time: 0.008333
0.098116 15.228474 14.878301 16.332365 52.286427 14.304618 9.485322 0.313330 -2.144907 -19.968768 -35.465907 -10.952411 9.418837 19.898660 61.912162 3.512243 -39.572988 22.050419 0.300900 3.526800 9.749100 -9.262947 -4.100932 1.941982 6.099579 10.687631 -53.726634 -14.870898 -21.804578 75.996273 -0.601733 -2.593753 -3.691062 -0.346400 3.781600 -10.463100 16.333269 -5.289117 53.747783 -0.296192 0.704321 -0.328367 -11.137382 3.862591 -4.044194 -3.597438 -11.365919 7.650281 -4.291178 -12.366701 14.769277 -0.091400 -5.910500 0.837300 -3.704304 -1.670302 4.611643 -76.650215 -3.575470 24.626537 7.996737 -31.822745 -2.988745 0.325804 1.511159 14.337885 13.461168 -7.941434 -2.279900 -7.125000 0.000000 0.000000 -9.585900 20.254100 5.754800 3.694053 5.348755 4.439438 23.976914 29.013802 -49.092574 -0.070696 8.643008 -1.540740 -0.896128 -1.192841 33.498717 -34.717736 6.788258 -5.876700 7.125000 0.000000 0.000000 -5.541400 -19.632400 -3.373100 
0.088364 15.263800 14.909647 16.539979 52.604484 14.497093 9.466152 0.299537 -2.155891 -19.905611 -35.468895 -10.738676 9.171185 19.764980 61.254673 3.502516 -39.489971 22.730087 0.308000 3.567700 9.863500 -9.302007 -4.091065 1.890566 6.251489 10.616984 -53.274063 -14.756100 -21.755610 75.643114 -0.540591 -2.781931 -3.931476 -0.329900 3.691600 -10.210500 16.214025 -5.325775 53.640676 -0.300715 0.577586 -0.319672 -11.098112 3.814240 -3.968754 -3.771088 -11.273502 7.612673 -4.352122 -12.228112 14.809606 -0.063200 -5.854400 0.878500 -3.718592 -1.614731 4.586857 -76.701599 -3.665307 24.503492 8.130771 -31.937843 -3.027204 0.320871 1.526665 14.144206 13.454431 -7.888467 -2.270200 -7.125000 0.000000 0.000000 -9.589600 20.293600 5.748400 3.600549 5.278922 4.539259 24.873949 29.046151 -47.314866 -0.420083 9.262635 -1.640592 -0.916714 -1.261449 32.227553 -34.753793 6.715796 -5.888200 7.125000 0.000000 0.000000 -5.557800 -19.618800 -3.384900 
0.078612 15.301215 14.941689 16.745354 52.911134 14.682471 9.445430 0.286277 -2.167146 -19.841514 -35.455232 -10.512871 8.915178 19.623098 60.580574 3.506438 -39.366725 23.499286 0.322200 3.648400 10.089600 -9.346800 -4.080056 1.835485 6.420913 10.566608 -52.795086 -14.635918 -21.702702 75.270964 -0.477543 -2.975671 -4.188555 -0.315600 3.611200 -9.985400 16.046334 -5.343325 53.529144 -0.304585 0.453710 -0.312000 -11.021670 3.762093 -3.889015 -3.974908 -11.163544 7.561626 -4.408971 -12.069663 14.857919 -0.029400 -5.791000 0.930900 -3.721353 -1.561374 4.557103 -76.813138 -3.754255 24.238968 8.236910 -32.033545 -3.061916 0.315693 1.541589 14.068685 13.397794 -7.834105 -2.251700 -7.125000 0.000000 0.000000 -9.626500 20.338000 5.761500 3.493641 5.202520 4.654007 25.859754 29.053236 -45.018830 -0.831899 10.025703 -1.761625 -0.929313 -1.349718 30.514526 -34.845348 6.581926 -5.881100 7.125000 0.000000 0.000000 -5.620100 -19.653500 -3.418900 
0.068562 15.338630 14.973333 16.938548 53.232350 14.860026 9.421403 0.275468 -2.177720 -19.736403 -35.423913 -10.316557 8.656149 19.478249 59.900801 3.511501 -39.242622 24.350406 0.334100 3.714900 10.275800 -9.396373 -4.067650 1.776242 6.603246 10.529756 -52.291391 -14.508330 -21.645353 74.874576 -0.409626 -3.185061 -4.447863 -0.298000 3.510300 -9.702900 15.864009 -5.354115 53.404702 -0.305864 0.338981 -0.305168 -10.924260 3.708410 -3.798263 -4.152377 -11.053537 7.482569 -4.477798 -11.912227 14.907188 -0.018600 -5.724400 0.982800 -3.710542 -1.507676 4.522439 -76.932755 -3.816275 23.987314 8.378684 -32.173336 -3.105458 0.307673 1.560246 13.996044 13.293454 -7.753961 -2.220300 -7.125000 0.000000 0.000000 -9.695600 20.407800 5.788600 3.386056 5.123611 4.779213 26.920611 29.019431 -42.505906 -1.312385 10.882242 -1.901678 -0.935018 -1.449058 28.680517 -35.018970 6.386361 -5.857200 7.125000 0.000000 0.000000 -5.748900 -19.740300 -3.486800 
0.058213 15.377837 15.004280 17.114738 53.571671 15.024671 9.395282 0.263587 -2.189508 -19.611087 -35.380009 -10.124857 8.391068 19.326074 59.203319 3.526078 -39.101992 25.252773 0.351200 3.807400 10.535500 -9.452054 -4.056535 1.714294 6.817335 10.503596 -51.766002 -14.374631 -21.584399 74.456326 -0.329261 -3.433141 -4.721452 -0.284200 3.428400 -9.473800 15.705951 -5.363920 53.265843 -0.308072 0.233673 -0.296621 -10.847476 3.664850 -3.685164 -4.294596 -10.950611 7.374478 -4.543554 -11.761788 14.966350 -0.015800 -5.661100 1.042200 -3.694238 -1.446994 4.485255 -77.084981 -3.909698 23.649216 8.478332 -32.272150 -3.141091 0.302329 1.574827 14.044754 13.215270 -7.705309 -2.200100 -7.125000 0.000000 0.000000 -9.745500 20.447800 5.810300 3.279418 5.041268 4.913012 28.017342 28.912058 -39.787385 -1.834063 11.803127 -2.058101 -0.929436 -1.558194 26.656793 -35.290475 6.141056 -5.825500 7.125000 0.000000 0.000000 -5.954400 -19.866100 -3.595900 
0.047665 15.417840 15.035327 17.279605 53.925205 15.155533 9.367041 0.251747 -2.200360 -19.481701 -35.326060 -9.908299 8.125100 19.166125 58.497778 3.557091 -38.932952 26.146398 0.361700 3.863600 10.693200 -9.516452 -4.044410 1.645338 7.060333 10.478051 -51.177243 -14.232660 -21.516410 74.008741 -0.252457 -3.670633 -5.021717 -0.265700 3.316100 -9.160100 15.557314 -5.365298 53.134166 -0.308085 0.154405 -0.288512 -10.758439 3.627740 -3.573255 -4.410381 -10.865737 7.281677 -4.619137 -11.630257 15.032023 -0.028400 -5.602700 1.092400 -3.661186 -1.387290 4.449161 -77.270334 -3.990410 23.288187 8.573479 -32.378697 -3.176357 0.297504 1.588990 14.121216 13.104814 -7.687727 -2.181600 -7.125000 0.000000 0.000000 -9.816900 20.458600 5.851700 3.174843 4.961669 5.050760 29.142221 28.740689 -37.160177 -2.384766 12.726138 -2.226741 -0.920002 -1.663735 24.784955 -35.710958 5.889434 -5.820800 7.125000 0.000000 0.000000 -6.266700 -19.981400 -3.770500 
